<svg xmlns="http://www.w3.org/2000/svg" width="1200" height="1100" viewBox="0 0 1200 1100">
  <defs>
    <style type="text/css">
      .title-tier { font-family: Helvetica, Arial, sans-serif; font-weight: bold; font-size: 16px; fill: #424242; }
      .container-title { font-family: Helvetica, Arial, sans-serif; font-weight: bold; font-size: 14px; fill: #111; }
      .label-bold { font-family: Helvetica, Arial, sans-serif; font-weight: bold; font-size: 13px; fill: #000; text-anchor: middle; }
      .label-small { font-family: Helvetica, Arial, sans-serif; font-size: 10px; fill: #424242; text-anchor: middle; }
      .label-italic { font-family: Helvetica, Arial, sans-serif; font-style: italic; font-size: 10px; fill: #424242; text-anchor: middle; }
      .edge-label { font-family: Helvetica, Arial, sans-serif; font-size: 10px; fill: #333; text-anchor: middle; }
    </style>
  </defs>
  
  <rect width="1200" height="1100" fill="#fff"/>
  
  <!-- Tier Labels (Far Left) -->
  <text x="20" y="40" class="title-tier">USERS &amp; IDENTITY</text>
  <text x="20" y="240" class="title-tier">CONTROL PLANE</text>
  <text x="20" y="460" class="title-tier">INGESTION</text>
  <text x="20" y="710" class="title-tier">CLOUD BOUNDARY</text>

  <!-- Tier 1: User & Identity -->
  <rect x="260" y="20" width="900" height="150" rx="10" fill="#fff9c4" stroke="#fbc02d" stroke-width="2"/>
  <text x="280" y="45" class="container-title">User &amp; Identity Tier</text>
  
  <rect x="280" y="60" width="200" height="80" rx="5" fill="#fff" stroke="#fbc02d" stroke-width="2"/>
  <text x="380" y="85" class="label-bold">Product Developers</text>
  <text x="380" y="105" class="label-small">View ONLY their product</text>
  
  <rect x="495" y="60" width="200" height="80" rx="5" fill="#fff" stroke="#fbc02d" stroke-width="2"/>
  <text x="595" y="85" class="label-bold">DevOps &amp; SRE</text>
  <text x="595" y="105" class="label-small">Cross-product view</text>
  
  <rect x="710" y="60" width="200" height="80" rx="5" fill="#fff" stroke="#fbc02d" stroke-width="2"/>
  <text x="810" y="85" class="label-bold">VP / P&amp;L Owners</text>
  <text x="810" y="105" class="label-small">Cost Showback</text>
  
  <rect x="925" y="60" width="200" height="80" rx="5" fill="#f3e5f5" stroke="#4a148c" stroke-width="2"/>
  <text x="1025" y="85" class="label-bold">Azure Entra ID</text>
  <text x="1025" y="105" class="label-small">SSO &amp; Security Groups</text>

  <!-- User Access to Entra ID Lines -->
  <path d="M 480 100 L 925 100" stroke="#fbc02d" stroke-width="2" marker-end="url(#arrow-yellow)"/>

  <!-- Tier 2: Control Plane -->
  <rect x="260" y="220" width="900" height="150" rx="10" fill="#f3e5f5" stroke="#4a148c" stroke-width="2"/>
  <text x="280" y="245" class="container-title">GitOps Control Plane</text>
  
  <rect x="290" y="270" width="220" height="60" rx="5" fill="#fff" stroke="#4a148c" stroke-width="2"/>
  <text x="400" y="295" class="label-bold">GitHub Repositories</text>
  <text x="400" y="315" class="label-small">CODEOWNERS Approvals</text>
  
  <rect x="580" y="270" width="220" height="60" rx="5" fill="#fff" stroke="#4a148c" stroke-width="2"/>
  <text x="690" y="295" class="label-bold">Terraform Cloud</text>
  <text x="690" y="315" class="label-small">Stateful Provisioning</text>
  
  <rect x="870" y="270" width="220" height="60" rx="5" fill="#fff" stroke="#4a148c" stroke-width="2"/>
  <text x="980" y="295" class="label-bold">Azure Key Vault</text>
  <text x="980" y="315" class="label-small">Secrets Management</text>

  <!-- Control Flow Lines -->
  <path d="M 510 300 L 580 300" stroke="#4a148c" stroke-width="2" marker-end="url(#arrow-purple)"/>
  <text x="545" y="290" class="edge-label">On PR Merge</text>
  
  <path d="M 800 300 L 870 300" stroke="#4a148c" stroke-width="2" marker-end="url(#arrow-purple)"/>
  <text x="835" y="290" class="edge-label">Fetches Secrets</text>
  
  <path d="M 690 270 L 690 200 L 1025 200 L 1025 140" fill="none" stroke="#4a148c" stroke-width="2" marker-end="url(#arrow-purple)"/>
  <text x="850" y="195" class="edge-label">Syncs Groups</text>

  <!-- Tier 3: Ingestion -->
  <rect x="260" y="440" width="900" height="200" rx="10" fill="#e8f5e9" stroke="#1b5e20" stroke-width="2"/>
  <text x="280" y="465" class="container-title">Telemetry Ingestion</text>
  
  <rect x="290" y="490" width="180" height="80" rx="5" fill="#fff" stroke="#1b5e20" stroke-width="2"/>
  <text x="380" y="515" class="label-bold">AKS Clusters</text>
  <text x="380" y="535" class="label-small">LaserPro</text>
  
  <rect x="500" y="490" width="180" height="80" rx="5" fill="#fff" stroke="#1b5e20" stroke-width="2"/>
  <text x="590" y="515" class="label-bold">Azure VMs</text>
  <text x="590" y="535" class="label-small">Pay2Go</text>
  
  <rect x="710" y="490" width="180" height="80" rx="5" fill="#fff" stroke="#1b5e20" stroke-width="2"/>
  <text x="800" y="515" class="label-bold">Databases</text>
  <text x="800" y="535" class="label-small">U. Banking</text>
  
  <rect x="920" y="500" width="200" height="60" rx="5" fill="#fff" stroke="#1b5e20" stroke-width="2"/>
  <text x="1020" y="525" class="label-bold">Grafana Alloy</text>
  <text x="1020" y="545" class="label-small">Enforces Labeling</text>

  <!-- Ingestion Flow Lines -->
  <path d="M 470 530 L 920 530" stroke="#1b5e20" stroke-width="2" marker-end="url(#arrow-green)"/>

  <!-- Tier 4: Cloud Boundary -->
  <rect x="260" y="690" width="900" height="350" rx="10" fill="#e3f2fd" stroke="#0d47a1" stroke-width="2"/>
  <text x="280" y="715" class="container-title">Grafana Cloud (Finastra Org)</text>
  
  <rect x="280" y="740" width="260" height="280" rx="5" fill="#fff3e0" stroke="#e65100" stroke-width="2"/>
  <text x="410" y="765" class="label-bold">Lending BU Stack</text>
  
  <rect x="560" y="740" width="260" height="280" rx="5" fill="#fff3e0" stroke="#e65100" stroke-width="2"/>
  <text x="690" y="765" class="label-bold">Payment BU Stack</text>
  
  <rect x="840" y="740" width="300" height="150" rx="5" fill="#f1f5f9" stroke="#64748b" stroke-width="2" stroke-dasharray="5,5"/>
  <text x="990" y="765" class="label-bold">Central Stack</text>

  <!-- External Data Flow Lines -->
  <path d="M 1020 560 L 1020 660 L 410 660 L 410 740" fill="none" stroke="#1b5e20" stroke-width="2" marker-end="url(#arrow-green)"/>
  <text x="715" y="650" class="edge-label">OTLP (Metrics, Logs, Traces)</text>
  
  <path d="M 690 330 L 690 675 L 260 675" fill="none" stroke="#4a148c" stroke-width="2" marker-end="url(#arrow-purple)"/>
  <text x="475" y="685" class="edge-label">Provisions API (Stacks, Folders, RBAC, LBAC)</text>
  
  <path d="M 1125 100 L 1170 100 L 1170 865 L 1160 865" fill="none" stroke="#4a148c" stroke-width="2" marker-end="url(#arrow-purple)" stroke-dasharray="5,5"/>
  <text x="1150" y="480" class="edge-label" transform="rotate(90, 1150, 480)">Maps to RBAC/LBAC rules</text>

  <!-- Markers -->
  <marker id="arrow-purple" markerWidth="10" markerHeight="7" refX="10" refY="3.5" orient="auto">
    <polygon points="0 0, 10 3.5, 0 7" fill="#4a148c" />
  </marker>
  <marker id="arrow-green" markerWidth="10" markerHeight="7" refX="10" refY="3.5" orient="auto">
    <polygon points="0 0, 10 3.5, 0 7" fill="#1b5e20" />
  </marker>
  <marker id="arrow-yellow" markerWidth="10" markerHeight="7" refX="10" refY="3.5" orient="auto">
    <polygon points="0 0, 10 3.5, 0 7" fill="#fbc02d" />
  </marker>
</svg>
